<?xml version="1.0" encoding="utf-8"?>
<!-- Generator: Adobe Illustrator 19.0.0, SVG Export Plug-In . SVG Version: 6.00 Build 0)  -->
<svg version="1.1" id="Capa_1" xmlns="http://www.w3.org/2000/svg" xmlns:xlink="http://www.w3.org/1999/xlink" x="0px" y="0px"
	 viewBox="0 0 1797.7 444" style="enable-background:new 0 0 1797.7 444;" xml:space="preserve">
<style type="text/css">
	.st0{fill:#159870;}
	.st1{fill:#951184;}
	.st2{fill:#F35610;}
	.st3{fill:#040404;}
</style>
<g id="XMLID_441_">
	<g id="XMLID_526_">
		<path id="XMLID_863_" class="st0" d="M657.7-721.7l107.9,155.3v-155h55v268.6h-52.9L659.5-608.5v155.7h-55v-268.9H657.7z"/>
		<path id="XMLID_920_" class="st0" d="M859.7-452.8v-268.9h80.5c0.7,0,1.4,0,1.8,0.4c40.3,4,70.8,34.9,70.8,74.4
			c0,18.3-4.7,32-13.7,44.9c17.3,15.8,28.8,38.1,28.8,64c0,46.4-36.7,84.1-83.4,85.2H859.7z M935.2-663.9H918v43.9H937
			c11.9-1.1,19.8-11.1,19.8-22.6C956.8-654.1,947.8-663.9,935.2-663.9z M918-568.9v58.2h24.8c15.5,0,27.3-13.7,27.3-29.5
			c0-15.5-11.9-28.8-27.3-28.8H918z"/>
		<path id="XMLID_1287_" class="st0" d="M1065.7-721.7h89.5c74.8,0,135.2,60.8,135.2,134.5s-60.4,134.5-135.2,134.5h-89.5V-721.7z
			 M1123.6-663.9v153.2h31.6c44.9,0,77.3-31.3,77.3-76.6c0-45.3-30.2-76.6-75.1-76.6H1123.6z"/>
	</g>
	<g id="XMLID_523_">
		<path id="XMLID_464_" class="st0" d="M1343.9-684.8l21.7,31.2v-31.1h11.1v54h-10.6l-21.8-31.3v31.3h-11.1v-54.1H1343.9z"/>
		<path id="XMLID_472_" class="st0" d="M1401.1-667.4c10.3,0,18.6,8.3,18.6,18.6c0,10.4-8.3,18.7-18.6,18.7
			c-10.4,0-18.6-8.3-18.6-18.7C1382.5-659.1,1390.7-667.4,1401.1-667.4z M1401.1-641.3c4.1,0,7.5-3.3,7.5-7.6c0-4.1-3.4-7.5-7.5-7.5
			c-4.3,0-7.6,3.4-7.6,7.5C1393.5-644.6,1396.8-641.3,1401.1-641.3z"/>
		<path id="XMLID_475_" class="st0" d="M1461.5-630.5h-9.5v-2.1c-2.5,1.4-5.6,2.5-9.3,2.5c-10.2,0-18.6-8.5-18.6-18.6
			s8.5-18.6,18.6-18.6c2.8,0,5.4,0.7,7.7,1.7v-15h11.1V-630.5z M1442.7-641.1c4.3,0,7.7-3.4,7.7-7.7s-3.3-7.7-7.7-7.7
			c-4.3,0-7.7,3.4-7.7,7.7S1438.5-641.1,1442.7-641.1z"/>
		<path id="XMLID_478_" class="st0" d="M1485.9-667.4c10.3,0,18.6,8.3,18.6,18.6c0,10.4-8.3,18.7-18.6,18.7
			c-10.4,0-18.6-8.3-18.6-18.7C1467.2-659.1,1475.5-667.4,1485.9-667.4z M1485.9-641.3c4.1,0,7.5-3.3,7.5-7.6c0-4.1-3.4-7.5-7.5-7.5
			c-4.3,0-7.6,3.4-7.6,7.5C1478.3-644.6,1481.6-641.3,1485.9-641.3z"/>
		<path id="XMLID_485_" class="st0" d="M1333.2-544v-54.1h16.2c0.1,0,0.3,0,0.4,0.1c8.1,0.8,14.2,7,14.2,15c0,3.7-0.9,6.4-2.7,9
			c3.5,3.2,5.8,7.7,5.8,12.9c0,9.3-7.4,16.9-16.8,17.1H1333.2z M1348.3-586.4h-3.5v8.8h3.8c2.4-0.2,4-2.2,4-4.6
			S1350.9-586.4,1348.3-586.4z M1344.9-567.4v11.7h5c3.1,0,5.5-2.7,5.5-5.9c0-3.1-2.4-5.8-5.5-5.8H1344.9z"/>
		<path id="XMLID_489_" class="st0" d="M1379-592.4c2.9,0,5.6,2.7,5.6,5.5c0,3.2-2.7,5.6-5.6,5.6c-3.1,0-5.6-2.5-5.6-5.6
			C1373.4-589.8,1375.9-592.4,1379-592.4z M1373.4-580.1h11.1v36.1h-11.1V-580.1z"/>
		<path id="XMLID_492_" class="st0" d="M1407.7-580.7c10.3,0,18.6,8.3,18.6,18.6c0,10.4-8.3,18.7-18.6,18.7
			c-10.4,0-18.6-8.3-18.6-18.7C1389-572.4,1397.3-580.7,1407.7-580.7z M1407.7-554.6c4.1,0,7.5-3.3,7.5-7.6c0-4.1-3.4-7.5-7.5-7.5
			c-4.3,0-7.6,3.4-7.6,7.5C1400.1-557.9,1403.4-554.6,1407.7-554.6z"/>
		<path id="XMLID_495_" class="st0" d="M1432.4-583.3c0-6.6,3.5-10.8,10.2-10.8h7.7v9.8h-3.8c-2,0-3,0.4-3,2.4v1.7h9.2v10h-9.2v26.1
			h-11.1v-26.1h-4.7v-10h4.7V-583.3z"/>
		<path id="XMLID_497_" class="st0" d="M1472.6-580.7c3.1,0,6,0.7,8.5,2.1v-1.5h10.2v36.5h-9.4v-2.3c-2.8,1.7-5.9,2.5-9.3,2.5
			c-10.3,0-18.6-8.5-18.6-18.6S1462.4-580.7,1472.6-580.7z M1472.6-554.3c4.4,0,7.7-3.4,7.7-7.7s-3.3-7.7-7.7-7.7
			c-4.3,0-7.6,3.4-7.6,7.7S1468.4-554.3,1472.6-554.3z"/>
		<path id="XMLID_521_" class="st0" d="M1498.2-594h11.1v15c2.3-1.1,4.9-1.7,7.7-1.7c10.2,0,18.6,8.5,18.6,18.6s-8.5,18.6-18.6,18.6
			c-3.5,0-6.8-1.1-9.4-2.5v2.1h-9.4V-594z M1516.9-569.8c-4.3,0-7.7,3.4-7.7,7.7s3.3,7.7,7.7,7.7c4.3,0,7.7-3.4,7.7-7.7
			S1521.2-569.8,1516.9-569.8z"/>
		<path id="XMLID_594_" class="st0" d="M1541.4-580.3h9v1.4c2.1-1.4,4.9-1.8,7.2-1.8h5.7v11.1h-5.7c-2.8,0-5.1,2-5.1,4.7v20.9h-11.1
			V-580.3z"/>
		<path id="XMLID_596_" class="st0" d="M1573.7-592.4c2.9,0,5.6,2.7,5.6,5.5c0,3.2-2.7,5.6-5.6,5.6c-3.1,0-5.6-2.5-5.6-5.6
			C1568.1-589.8,1570.6-592.4,1573.7-592.4z M1568.1-580.1h11.1v36.1h-11.1V-580.1z"/>
		<path id="XMLID_608_" class="st0" d="M1618.8-571.8l-8.1,6l-1.5-1.3c-1.7-1.5-3.5-2.5-6-2.5c-4.3,0-7.6,3.4-7.6,7.5
			c0,4.3,3.3,7.6,7.6,7.6c2.8,0,4.9-1.6,7.2-4.7l9.7,4.8c-3.5,6.5-9.8,11-17,11c-10.4,0-18.7-8.3-18.7-18.7
			c0-10.3,8.3-18.6,18.7-18.6C1609.5-580.7,1615.6-576.7,1618.8-571.8z"/>
		<path id="XMLID_610_" class="st0" d="M1642.1-580.7c3.1,0,6,0.7,8.5,2.1v-1.5h10.2v36.5h-9.4v-2.3c-2.8,1.7-5.9,2.5-9.3,2.5
			c-10.3,0-18.6-8.5-18.6-18.6S1631.8-580.7,1642.1-580.7z M1642.1-554.3c4.4,0,7.7-3.4,7.7-7.7s-3.3-7.7-7.7-7.7
			c-4.3,0-7.6,3.4-7.6,7.7S1637.8-554.3,1642.1-554.3z"/>
		<path id="XMLID_644_" class="st0" d="M1701-571.8l-8.1,6l-1.5-1.3c-1.7-1.5-3.5-2.5-6-2.5c-4.3,0-7.6,3.4-7.6,7.5
			c0,4.3,3.3,7.6,7.6,7.6c2.8,0,4.9-1.6,7.2-4.7l9.7,4.8c-3.5,6.5-9.8,11-17,11c-10.4,0-18.7-8.3-18.7-18.7
			c0-10.3,8.3-18.6,18.7-18.6C1691.7-580.7,1697.8-576.7,1701-571.8z"/>
		<path id="XMLID_646_" class="st0" d="M1712.3-592.4c2.9,0,5.6,2.7,5.6,5.5c0,3.2-2.7,5.6-5.6,5.6c-3.1,0-5.6-2.5-5.6-5.6
			C1706.7-589.8,1709.2-592.4,1712.3-592.4z M1706.7-580.1h11.1v36.1h-11.1V-580.1z"/>
		<path id="XMLID_649_" class="st0" d="M1741.3-580.7c10.3,0,18.6,8.3,18.6,18.6c0,10.4-8.3,18.7-18.6,18.7
			c-10.4,0-18.6-8.3-18.6-18.7C1722.7-572.4,1730.9-580.7,1741.3-580.7z M1746.5-598.8l4,8.9l-13.3,5.4l-5.1-8.2L1746.5-598.8z
			 M1741.3-554.6c4.1,0,7.5-3.3,7.5-7.6c0-4.1-3.4-7.5-7.5-7.5c-4.3,0-7.6,3.4-7.6,7.5C1733.7-557.9,1737.1-554.6,1741.3-554.6z"/>
		<path id="XMLID_653_" class="st0" d="M1765.3-580.3h9v1.4c2-1.4,4.8-1.8,7.2-1.8c10.2,0,16.2,5.8,16.2,16.1v20.6h-11.1v-20.5
			c0-2.9-2.3-5.2-5.1-5.2c-2.7,0-5,2-5.2,4.8v20.8h-11V-580.3z"/>
		<path id="XMLID_675_" class="st0" d="M1333.3-511.3h18c15,0,27.2,12.2,27.2,27s-12.1,27-27.2,27h-18V-511.3z M1345-499.7v30.8h6.4
			c9,0,15.5-6.3,15.5-15.4s-6.1-15.4-15.1-15.4H1345z"/>
		<path id="XMLID_739_" class="st0" d="M1390.1-505.7c2.9,0,5.6,2.7,5.6,5.5c0,3.2-2.7,5.6-5.6,5.6c-3.1,0-5.6-2.5-5.6-5.6
			C1384.6-503.1,1387-505.7,1390.1-505.7z M1384.6-493.4h11.1v36.1h-11.1V-493.4z"/>
		<path id="XMLID_743_" class="st0" d="M1411.3-454.8c1.8,1.4,4.3,3,6.9,3c4,0,7.3-2.7,8.4-6.4c-2.2,0.9-4.8,1.6-7.5,1.6
			c-10.2,0-18.6-8.5-18.6-18.6s8.5-18.6,18.6-18.6c3.7,0,6.8,1.1,9.3,2.5v-2.1h9.5v31.9c0,10.9-8.8,20-19.9,20
			c-4.8,0-9.8-2.2-13.5-5.6L1411.3-454.8z M1419.1-467.6c4.3,0,7.7-3.4,7.7-7.7s-3.3-7.7-7.7-7.7c-4.3,0-7.7,3.4-7.7,7.7
			S1414.8-467.6,1419.1-467.6z"/>
		<path id="XMLID_777_" class="st0" d="M1450-505.7c2.9,0,5.6,2.7,5.6,5.5c0,3.2-2.7,5.6-5.6,5.6c-3.1,0-5.6-2.5-5.6-5.6
			C1444.5-503.1,1446.9-505.7,1450-505.7z M1444.5-493.4h11.1v36.1h-11.1V-493.4z"/>
		<path id="XMLID_793_" class="st0" d="M1468.3-503.3h11v9.9h7.9v10h-7.9v26.1h-11v-26.1h-8.2v-10h8.2V-503.3z"/>
		<path id="XMLID_811_" class="st0" d="M1507.4-494c3.1,0,6,0.7,8.5,2.1v-1.5h10.2v36.5h-9.4v-2.3c-2.8,1.7-5.9,2.5-9.3,2.5
			c-10.3,0-18.6-8.5-18.6-18.6S1497.1-494,1507.4-494z M1507.4-467.6c4.4,0,7.7-3.4,7.7-7.7s-3.3-7.7-7.7-7.7
			c-4.3,0-7.6,3.4-7.6,7.7S1503.1-467.6,1507.4-467.6z"/>
		<path id="XMLID_857_" class="st0" d="M1533-507.2h11.1v49.9H1533V-507.2z"/>
	</g>
	<g id="XMLID_442_">
		<g id="XMLID_483_">
			<g id="XMLID_470_">
				<g id="XMLID_471_">
					<path id="XMLID_1865_" class="st0" d="M37.6-562.4c-3.8,0-6.9-3.1-6.9-6.9c0-3.8,3.1-6.9,6.9-6.9l441-0.9c0,0,0,0,0,0
						c3.8,0,6.9,3.1,6.9,6.9c0,3.8-3.1,6.9-6.9,6.9L37.6-562.4C37.6-562.4,37.6-562.4,37.6-562.4z"/>
				</g>
			</g>
			<g id="XMLID_467_">
				<g id="XMLID_469_">
					<path id="XMLID_1862_" class="st0" d="M453-584.5c5.1-8.3,14-13.2,23.7-13.2c7.4,0,14.3,3,19.5,8.2c5.2,5.3,8,12.2,8,19.6
						c0,7.4-3,14.3-8.2,19.5c-5.3,5.2-12.2,8-19.6,8c-10.1-0.1-19.3-5.6-24.1-14.5c-1.6-2.9-5.2-4-8.1-2.4c-2.9,1.6-4,5.2-2.4,8.1
						c6.9,12.7,20.2,20.6,34.6,20.7c10.6,0.1,20.5-4,28.1-11.4c7.5-7.4,11.7-17.4,11.8-27.9c0.1-10.6-4-20.5-11.4-28.1
						c-7.4-7.5-17.4-11.7-27.9-11.8c-11-0.1-21.2,4.3-28.6,11.9c-2,2.1-3.8,4.4-5.4,7c-1.7,2.8-0.9,6.5,2,8.2
						C447.6-580.8,451.3-581.7,453-584.5z"/>
				</g>
			</g>
			<g id="XMLID_463_">
				<g id="XMLID_466_">
					<path id="XMLID_1859_" class="st0" d="M63.2-555.6c-5.1,8.3-14,13.2-23.7,13.2c-7.4,0-14.3-3-19.5-8.2c-5.2-5.3-8-12.2-8-19.6
						c0-7.4,3-14.3,8.2-19.5c5.3-5.2,12.2-8,19.6-8c10.1,0.1,19.3,5.6,24.1,14.5c1.6,2.9,5.2,4,8.1,2.4c2.9-1.6,4-5.2,2.4-8.1
						c-6.9-12.7-20.2-20.6-34.6-20.7c-10.6-0.1-20.5,4-28.1,11.4C4.3-590.8,0.1-580.9,0-570.3c-0.1,10.6,4,20.5,11.4,28.1
						s17.4,11.7,27.9,11.8c11,0.1,21.2-4.3,28.6-11.9c2-2.1,3.8-4.4,5.4-7c1.7-2.8,0.9-6.5-2-8.2C68.6-559.3,64.9-558.4,63.2-555.6z
						"/>
				</g>
			</g>
		</g>
		<g id="XMLID_480_">
			<g id="XMLID_482_">
				<path id="XMLID_1855_" class="st1" d="M367-632.7c-10.8,0-19.6,8.8-19.6,19.7c0,2.8,0.6,5.4,1.6,7.8L132.6-387.9
					c-2.7,2.7-2.7,7.1,0,9.7c1.3,1.3,3.1,2,4.9,2c1.8,0,3.5-0.7,4.9-2l216.3-217.2c2.6,1.2,5.4,1.9,8.5,1.9
					c10.8,0,19.6-8.8,19.6-19.7C386.7-624,377.9-632.7,367-632.7z"/>
			</g>
			<g id="XMLID_481_">
				<path id="XMLID_1853_" class="st1" d="M169.9-398.2c-3.2,0.8-5.2,4-4.4,7.2c2.3,9.5-0.5,19.3-7.5,26.1c-5.3,5.2-12.2,8-19.6,8
					c-7.4,0-14.3-3-19.5-8.2c-5.2-5.3-8-12.2-8-19.6c0-7.4,3-14.3,8.2-19.5c7.2-7.1,17.6-9.7,27.3-6.9c3.2,0.9,6.5-0.9,7.4-4
					c0.9-3.2-0.9-6.5-4-7.4c-13.8-4.1-28.8-0.3-39.1,9.8c-7.5,7.4-11.7,17.4-11.8,27.9c0,10.5,4,20.5,11.4,28.1
					c7.4,7.5,17.4,11.7,27.9,11.8c10.6,0.1,20.5-4,28.1-11.4c7.8-7.7,11.9-18,11.8-28.6c0-2.9-0.4-5.8-1.1-8.7
					C176.3-397,173.1-399,169.9-398.2z"/>
			</g>
		</g>
		<g id="XMLID_465_">
			<g id="XMLID_461_">
				<g id="XMLID_462_">
					<path id="XMLID_1850_" class="st2" d="M358.9-522.5c-1.8,0-3.5-0.7-4.9-2l-221.9-221c-2.7-2.7-2.7-7,0-9.7c2.7-2.7,7-2.7,9.7,0
						l221.9,221c2.7,2.7,2.7,7,0,9.7C362.5-523.2,360.7-522.5,358.9-522.5z"/>
				</g>
			</g>
			<g id="XMLID_459_">
				<g id="XMLID_460_">
					<circle id="XMLID_1847_" class="st2" cx="367.1" cy="-520.8" r="19.6"/>
				</g>
			</g>
			<g id="XMLID_435_">
				<g id="XMLID_439_">
					<path id="XMLID_1844_" class="st2" d="M145-722.4c-9.5,2.3-19.3-0.5-26.1-7.5c-5.2-5.3-8-12.2-8-19.6c0-7.4,3-14.3,8.2-19.5
						c5.3-5.2,12.2-8,19.6-8c7.4,0,14.3,3,19.5,8.2c7.1,7.2,9.7,17.6,6.9,27.3c-0.9,3.2,0.9,6.5,4,7.4c3.2,0.9,6.5-0.9,7.4-4
						c4.1-13.8,0.3-28.8-9.8-39.1c-7.4-7.5-17.4-11.7-27.9-11.8c-10.5,0-20.5,4-28.1,11.4c-7.5,7.4-11.7,17.4-11.8,27.9
						s4,20.5,11.4,28.1c7.7,7.8,18,11.9,28.6,11.8c2.9,0,5.8-0.4,8.7-1.1c3.2-0.8,5.2-4,4.4-7.2C151.4-721.2,148.2-723.2,145-722.4z
						"/>
				</g>
			</g>
		</g>
		<g id="XMLID_458_">
			<g id="XMLID_438_">
				<circle id="XMLID_1840_" class="st0" cx="258.1" cy="-570" r="19.6"/>
			</g>
		</g>
		<g id="XMLID_446_">
			<g id="XMLID_452_">
				<g id="XMLID_453_">
					<path id="XMLID_1837_" class="st1" d="M157.7-522.1c-1.8,0-3.5-0.7-4.9-2c-2.7-2.7-2.7-7,0-9.7l221-221.9c2.7-2.7,7-2.7,9.7,0
						c2.7,2.7,2.7,7,0,9.7l-221,221.9C161.2-522.8,159.5-522.1,157.7-522.1z"/>
				</g>
			</g>
			<g id="XMLID_450_">
				<g id="XMLID_451_">
					<circle id="XMLID_1834_" class="st1" cx="149.1" cy="-520.8" r="19.6"/>
				</g>
			</g>
			<g id="XMLID_447_">
				<g id="XMLID_448_">
					<path id="XMLID_1831_" class="st1" d="M350.7-742.9c-2.3-9.5,0.5-19.3,7.5-26.1c5.3-5.2,12.2-8,19.6-8c7.4,0,14.3,3,19.5,8.2
						c5.2,5.3,8,12.2,8,19.6c0,7.4-3,14.3-8.2,19.5c-7.2,7.1-17.6,9.7-27.3,6.9c-3.2-0.9-6.5,0.9-7.4,4c-0.9,3.2,0.9,6.5,4,7.4
						c13.8,4.1,28.8,0.3,39.1-9.8c7.5-7.4,11.7-17.4,11.8-27.9c0-10.5-4-20.5-11.4-28.1c-7.4-7.5-17.4-11.7-27.9-11.8
						c-10.6-0.1-20.5,4-28.1,11.4c-7.8,7.7-11.9,18-11.8,28.6c0,2.9,0.4,5.8,1.1,8.7c0.8,3.2,4,5.2,7.2,4.4
						C349.5-736.5,351.5-739.7,350.7-742.9z"/>
				</g>
			</g>
		</g>
		<g id="XMLID_443_">
			<g id="XMLID_445_">
				<path id="XMLID_1827_" class="st2" d="M374.3-378.6c1.3,1.3,3.1,2,4.9,2c1.8,0,3.5-0.7,4.9-2c2.7-2.7,2.7-7.1,0-9.7L166.8-604.7
					c1.2-2.6,1.9-5.4,1.9-8.5c0-10.8-8.8-19.6-19.7-19.6c-10.8,0-19.6,8.8-19.6,19.7c0,10.8,8.8,19.6,19.7,19.6
					c2.8,0,5.4-0.6,7.8-1.6L374.3-378.6z"/>
			</g>
			<g id="XMLID_444_">
				<path id="XMLID_1825_" class="st2" d="M405.8-412.4c-7.7-7.8-18-11.9-28.6-11.8c-2.9,0-5.8,0.4-8.7,1.1c-3.2,0.8-5.2,4-4.4,7.2
					c0.8,3.2,4,5.2,7.2,4.4c9.5-2.3,19.3,0.5,26.1,7.5c5.2,5.3,8,12.2,8,19.6c0,7.4-3,14.3-8.2,19.5c-5.3,5.2-12.2,8-19.6,8
					c-7.4,0-14.3-3-19.5-8.2c-7.1-7.2-9.7-17.6-6.9-27.3c0.9-3.2-0.9-6.5-4-7.4c-3.2-0.9-6.5,0.9-7.4,4c-4.1,13.8-0.3,28.8,9.8,39.1
					c7.4,7.5,17.4,11.7,27.9,11.8c10.5,0,20.5-4,28.1-11.4c7.5-7.4,11.7-17.4,11.8-27.9C417.3-394.9,413.2-404.9,405.8-412.4z"/>
			</g>
		</g>
	</g>
</g>
<g id="XMLID_1314_">
	<g id="XMLID_1641_">
		<path id="XMLID_1651_" class="st3" d="M657.7,67.2l107.9,155.3v-155h55v268.6h-52.9L659.5,180.5v155.7h-55V67.2H657.7z"/>
		<path id="XMLID_1647_" class="st3" d="M859.7,336.1V67.2h80.5c0.7,0,1.4,0,1.8,0.4c40.3,4,70.8,34.9,70.8,74.4
			c0,18.3-4.7,32-13.7,44.9c17.3,15.8,28.8,38.1,28.8,64c0,46.4-36.7,84.1-83.4,85.2H859.7z M935.2,125.1H918v43.9H937
			c11.9-1.1,19.8-11.1,19.8-22.6C956.8,134.8,947.8,125.1,935.2,125.1z M918,220v58.2h24.8c15.5,0,27.3-13.7,27.3-29.5
			c0-15.5-11.9-28.8-27.3-28.8H918z"/>
		<path id="XMLID_1642_" class="st3" d="M1065.7,67.2h89.5c74.8,0,135.2,60.8,135.2,134.5s-60.4,134.5-135.2,134.5h-89.5V67.2z
			 M1123.6,125.1v153.2h31.6c44.9,0,77.3-31.3,77.3-76.6c0-45.3-30.2-76.6-75.1-76.6H1123.6z"/>
	</g>
	<g id="XMLID_1476_">
		<path id="XMLID_1639_" class="st3" d="M1343.9,104.1l21.7,31.2v-31.1h11.1v54h-10.6l-21.8-31.3v31.3h-11.1v-54.1H1343.9z"/>
		<path id="XMLID_1636_" class="st3" d="M1401.1,121.5c10.3,0,18.6,8.3,18.6,18.6c0,10.4-8.3,18.7-18.6,18.7
			c-10.4,0-18.6-8.3-18.6-18.7C1382.5,129.8,1390.7,121.5,1401.1,121.5z M1401.1,147.7c4.1,0,7.5-3.3,7.5-7.6c0-4.1-3.4-7.5-7.5-7.5
			c-4.3,0-7.6,3.4-7.6,7.5C1393.5,144.3,1396.8,147.7,1401.1,147.7z"/>
		<path id="XMLID_1633_" class="st3" d="M1461.5,158.4h-9.5v-2.1c-2.5,1.4-5.6,2.5-9.3,2.5c-10.2,0-18.6-8.5-18.6-18.6
			s8.5-18.6,18.6-18.6c2.8,0,5.4,0.7,7.7,1.7v-15h11.1V158.4z M1442.7,147.9c4.3,0,7.7-3.4,7.7-7.7s-3.3-7.7-7.7-7.7
			c-4.3,0-7.7,3.4-7.7,7.7S1438.5,147.9,1442.7,147.9z"/>
		<path id="XMLID_1630_" class="st3" d="M1485.9,121.5c10.3,0,18.6,8.3,18.6,18.6c0,10.4-8.3,18.7-18.6,18.7
			c-10.4,0-18.6-8.3-18.6-18.7C1467.2,129.8,1475.5,121.5,1485.9,121.5z M1485.9,147.7c4.1,0,7.5-3.3,7.5-7.6c0-4.1-3.4-7.5-7.5-7.5
			c-4.3,0-7.6,3.4-7.6,7.5C1478.3,144.3,1481.6,147.7,1485.9,147.7z"/>
		<path id="XMLID_1589_" class="st3" d="M1333.2,244.9v-54.1h16.2c0.1,0,0.3,0,0.4,0.1c8.1,0.8,14.2,7,14.2,15c0,3.7-0.9,6.4-2.7,9
			c3.5,3.2,5.8,7.7,5.8,12.9c0,9.3-7.4,16.9-16.8,17.1H1333.2z M1348.3,202.5h-3.5v8.8h3.8c2.4-0.2,4-2.2,4-4.6
			S1350.9,202.5,1348.3,202.5z M1344.9,221.6v11.7h5c3.1,0,5.5-2.7,5.5-5.9c0-3.1-2.4-5.8-5.5-5.8H1344.9z"/>
		<path id="XMLID_1586_" class="st3" d="M1379,196.5c2.9,0,5.6,2.7,5.6,5.5c0,3.2-2.7,5.6-5.6,5.6c-3.1,0-5.6-2.5-5.6-5.6
			C1373.4,199.1,1375.9,196.5,1379,196.5z M1373.4,208.8h11.1v36.1h-11.1V208.8z"/>
		<path id="XMLID_1583_" class="st3" d="M1407.7,208.2c10.3,0,18.6,8.3,18.6,18.6c0,10.4-8.3,18.7-18.6,18.7
			c-10.4,0-18.6-8.3-18.6-18.7C1389,216.5,1397.3,208.2,1407.7,208.2z M1407.7,234.4c4.1,0,7.5-3.3,7.5-7.6c0-4.1-3.4-7.5-7.5-7.5
			c-4.3,0-7.6,3.4-7.6,7.5C1400.1,231,1403.4,234.4,1407.7,234.4z"/>
		<path id="XMLID_1576_" class="st3" d="M1432.4,205.6c0-6.6,3.5-10.8,10.2-10.8h7.7v9.8h-3.8c-2,0-3,0.4-3,2.4v1.7h9.2v10h-9.2
			v26.1h-11.1v-26.1h-4.7v-10h4.7V205.6z"/>
		<path id="XMLID_1573_" class="st3" d="M1472.6,208.2c3.1,0,6,0.7,8.5,2.1v-1.5h10.2v36.5h-9.4V243c-2.8,1.7-5.9,2.5-9.3,2.5
			c-10.3,0-18.6-8.5-18.6-18.6S1462.4,208.2,1472.6,208.2z M1472.6,234.6c4.4,0,7.7-3.4,7.7-7.7s-3.3-7.7-7.7-7.7
			c-4.3,0-7.6,3.4-7.6,7.7S1468.4,234.6,1472.6,234.6z"/>
		<path id="XMLID_1570_" class="st3" d="M1498.2,194.9h11.1v15c2.3-1.1,4.9-1.7,7.7-1.7c10.2,0,18.6,8.5,18.6,18.6
			s-8.5,18.6-18.6,18.6c-3.5,0-6.8-1.1-9.4-2.5v2.1h-9.4V194.9z M1516.9,219.1c-4.3,0-7.7,3.4-7.7,7.7s3.3,7.7,7.7,7.7
			c4.3,0,7.7-3.4,7.7-7.7S1521.2,219.1,1516.9,219.1z"/>
		<path id="XMLID_1568_" class="st3" d="M1541.4,208.6h9v1.4c2.1-1.4,4.9-1.8,7.2-1.8h5.7v11.1h-5.7c-2.8,0-5.1,2-5.1,4.7v20.9
			h-11.1V208.6z"/>
		<path id="XMLID_1565_" class="st3" d="M1573.7,196.5c2.9,0,5.6,2.7,5.6,5.5c0,3.2-2.7,5.6-5.6,5.6c-3.1,0-5.6-2.5-5.6-5.6
			C1568.1,199.1,1570.6,196.5,1573.7,196.5z M1568.1,208.8h11.1v36.1h-11.1V208.8z"/>
		<path id="XMLID_1563_" class="st3" d="M1618.8,217.1l-8.1,6l-1.5-1.3c-1.7-1.5-3.5-2.5-6-2.5c-4.3,0-7.6,3.4-7.6,7.5
			c0,4.3,3.3,7.6,7.6,7.6c2.8,0,4.9-1.6,7.2-4.7l9.7,4.8c-3.5,6.5-9.8,11-17,11c-10.4,0-18.7-8.3-18.7-18.7
			c0-10.3,8.3-18.6,18.7-18.6C1609.5,208.2,1615.6,212.3,1618.8,217.1z"/>
		<path id="XMLID_1560_" class="st3" d="M1642.1,208.2c3.1,0,6,0.7,8.5,2.1v-1.5h10.2v36.5h-9.4V243c-2.8,1.7-5.9,2.5-9.3,2.5
			c-10.3,0-18.6-8.5-18.6-18.6S1631.8,208.2,1642.1,208.2z M1642.1,234.6c4.4,0,7.7-3.4,7.7-7.7s-3.3-7.7-7.7-7.7
			c-4.3,0-7.6,3.4-7.6,7.7S1637.8,234.6,1642.1,234.6z"/>
		<path id="XMLID_1558_" class="st3" d="M1701,217.1l-8.1,6l-1.5-1.3c-1.7-1.5-3.5-2.5-6-2.5c-4.3,0-7.6,3.4-7.6,7.5
			c0,4.3,3.3,7.6,7.6,7.6c2.8,0,4.9-1.6,7.2-4.7l9.7,4.8c-3.5,6.5-9.8,11-17,11c-10.4,0-18.7-8.3-18.7-18.7
			c0-10.3,8.3-18.6,18.7-18.6C1691.7,208.2,1697.8,212.3,1701,217.1z"/>
		<path id="XMLID_1555_" class="st3" d="M1712.3,196.5c2.9,0,5.6,2.7,5.6,5.5c0,3.2-2.7,5.6-5.6,5.6c-3.1,0-5.6-2.5-5.6-5.6
			C1706.7,199.1,1709.2,196.5,1712.3,196.5z M1706.7,208.8h11.1v36.1h-11.1V208.8z"/>
		<path id="XMLID_1544_" class="st3" d="M1741.3,208.2c10.3,0,18.6,8.3,18.6,18.6c0,10.4-8.3,18.7-18.6,18.7
			c-10.4,0-18.6-8.3-18.6-18.7C1722.7,216.5,1730.9,208.2,1741.3,208.2z M1746.5,190.1l4,8.9l-13.3,5.4l-5.1-8.2L1746.5,190.1z
			 M1741.3,234.4c4.1,0,7.5-3.3,7.5-7.6c0-4.1-3.4-7.5-7.5-7.5c-4.3,0-7.6,3.4-7.6,7.5C1733.7,231,1737.1,234.4,1741.3,234.4z"/>
		<path id="XMLID_1542_" class="st3" d="M1765.3,208.6h9v1.4c2-1.4,4.8-1.8,7.2-1.8c10.2,0,16.2,5.8,16.2,16.1v20.6h-11.1v-20.5
			c0-2.9-2.3-5.2-5.1-5.2c-2.7,0-5,2-5.2,4.8v20.8h-11V208.6z"/>
		<path id="XMLID_1535_" class="st3" d="M1333.3,277.6h18c15,0,27.2,12.2,27.2,27s-12.1,27-27.2,27h-18V277.6z M1345,289.2V320h6.4
			c9,0,15.5-6.3,15.5-15.4s-6.1-15.4-15.1-15.4H1345z"/>
		<path id="XMLID_1532_" class="st3" d="M1390.1,283.2c2.9,0,5.6,2.7,5.6,5.5c0,3.2-2.7,5.6-5.6,5.6c-3.1,0-5.6-2.5-5.6-5.6
			C1384.6,285.8,1387,283.2,1390.1,283.2z M1384.6,295.5h11.1v36.1h-11.1V295.5z"/>
		<path id="XMLID_1528_" class="st3" d="M1411.3,334.1c1.8,1.4,4.3,3,6.9,3c4,0,7.3-2.7,8.4-6.4c-2.2,0.9-4.8,1.6-7.5,1.6
			c-10.2,0-18.6-8.5-18.6-18.6s8.5-18.6,18.6-18.6c3.7,0,6.8,1.1,9.3,2.5v-2.1h9.5v31.9c0,10.9-8.8,20-19.9,20
			c-4.8,0-9.8-2.2-13.5-5.6L1411.3,334.1z M1419.1,321.3c4.3,0,7.7-3.4,7.7-7.7s-3.3-7.7-7.7-7.7c-4.3,0-7.7,3.4-7.7,7.7
			S1414.8,321.3,1419.1,321.3z"/>
		<path id="XMLID_1515_" class="st3" d="M1450,283.2c2.9,0,5.6,2.7,5.6,5.5c0,3.2-2.7,5.6-5.6,5.6c-3.1,0-5.6-2.5-5.6-5.6
			C1444.5,285.8,1446.9,283.2,1450,283.2z M1444.5,295.5h11.1v36.1h-11.1V295.5z"/>
		<path id="XMLID_1511_" class="st3" d="M1468.3,285.6h11v9.9h7.9v10h-7.9v26.1h-11v-26.1h-8.2v-10h8.2V285.6z"/>
		<path id="XMLID_1508_" class="st3" d="M1507.4,294.9c3.1,0,6,0.7,8.5,2.1v-1.5h10.2V332h-9.4v-2.3c-2.8,1.7-5.9,2.5-9.3,2.5
			c-10.3,0-18.6-8.5-18.6-18.6S1497.1,294.9,1507.4,294.9z M1507.4,321.3c4.4,0,7.7-3.4,7.7-7.7s-3.3-7.7-7.7-7.7
			c-4.3,0-7.6,3.4-7.6,7.7S1503.1,321.3,1507.4,321.3z"/>
		<path id="XMLID_1506_" class="st3" d="M1533,281.7h11.1v49.9H1533V281.7z"/>
	</g>
	<g id="XMLID_1320_">
		<g id="XMLID_1358_">
			<g id="XMLID_1367_">
				<g id="XMLID_1368_">
					<path id="XMLID_1475_" class="st3" d="M37.6,226.6c-3.8,0-6.9-3.1-6.9-6.9c0-3.8,3.1-6.9,6.9-6.9l441-0.9c0,0,0,0,0,0
						c3.8,0,6.9,3.1,6.9,6.9c0,3.8-3.1,6.9-6.9,6.9L37.6,226.6C37.6,226.6,37.6,226.6,37.6,226.6z"/>
				</g>
			</g>
			<g id="XMLID_1364_">
				<g id="XMLID_1365_">
					<path id="XMLID_1366_" class="st3" d="M453,204.4c5.1-8.3,14-13.2,23.7-13.2c7.4,0,14.3,3,19.5,8.2c5.2,5.3,8,12.2,8,19.6
						c0,7.4-3,14.3-8.2,19.5c-5.3,5.2-12.2,8-19.6,8c-10.1-0.1-19.3-5.6-24.1-14.5c-1.6-2.9-5.2-4-8.1-2.4c-2.9,1.6-4,5.2-2.4,8.1
						c6.9,12.7,20.2,20.6,34.6,20.7c10.6,0.1,20.5-4,28.1-11.4c7.5-7.4,11.7-17.4,11.8-27.9c0.1-10.6-4-20.5-11.4-28.1
						s-17.4-11.7-27.9-11.8c-11-0.1-21.2,4.3-28.6,11.9c-2,2.1-3.8,4.4-5.4,7c-1.7,2.8-0.9,6.5,2,8.2
						C447.6,208.1,451.3,207.3,453,204.4z"/>
				</g>
			</g>
			<g id="XMLID_1360_">
				<g id="XMLID_1362_">
					<path id="XMLID_1363_" class="st3" d="M63.2,233.3c-5.1,8.3-14,13.2-23.7,13.2c-7.4,0-14.3-3-19.5-8.2c-5.2-5.3-8-12.2-8-19.6
						c0-7.4,3-14.3,8.2-19.5c5.3-5.2,12.2-8,19.6-8c10.1,0.1,19.3,5.6,24.1,14.5c1.6,2.9,5.2,4,8.1,2.4c2.9-1.6,4-5.2,2.4-8.1
						c-6.9-12.7-20.2-20.6-34.6-20.7c-10.6-0.1-20.5,4-28.1,11.4C4.3,198.1,0.1,208.1,0,218.7c-0.1,10.6,4,20.5,11.4,28.1
						c7.4,7.5,17.4,11.7,27.9,11.8c11,0.1,21.2-4.3,28.6-11.9c2-2.1,3.8-4.4,5.4-7c1.7-2.8,0.9-6.5-2-8.2
						C68.6,229.7,64.9,230.5,63.2,233.3z"/>
				</g>
			</g>
		</g>
		<g id="XMLID_1352_">
			<g id="XMLID_1355_">
				<path id="XMLID_1356_" class="st3" d="M367,156.2c-10.8,0-19.6,8.8-19.6,19.7c0,2.8,0.6,5.4,1.6,7.8L132.6,401
					c-2.7,2.7-2.7,7.1,0,9.7c1.3,1.3,3.1,2,4.9,2c1.8,0,3.5-0.7,4.9-2l216.3-217.2c2.6,1.2,5.4,1.9,8.5,1.9
					c10.8,0,19.6-8.8,19.6-19.7C386.7,165,377.9,156.2,367,156.2z"/>
			</g>
			<g id="XMLID_1353_">
				<path id="XMLID_1354_" class="st3" d="M169.9,390.7c-3.2,0.8-5.2,4-4.4,7.2c2.3,9.5-0.5,19.3-7.5,26.1c-5.3,5.2-12.2,8-19.6,8
					c-7.4,0-14.3-3-19.5-8.2c-5.2-5.3-8-12.2-8-19.6c0-7.4,3-14.3,8.2-19.5c7.2-7.1,17.6-9.7,27.3-6.9c3.2,0.9,6.5-0.9,7.4-4
					c0.9-3.2-0.9-6.5-4-7.4c-13.8-4.1-28.8-0.3-39.1,9.8c-7.5,7.4-11.7,17.4-11.8,27.9c0,10.5,4,20.5,11.4,28.1
					c7.4,7.5,17.4,11.7,27.9,11.8c10.6,0.1,20.5-4,28.1-11.4c7.8-7.7,11.9-18,11.8-28.6c0-2.9-0.4-5.8-1.1-8.7
					C176.3,391.9,173.1,389.9,169.9,390.7z"/>
			</g>
		</g>
		<g id="XMLID_1342_">
			<g id="XMLID_1349_">
				<g id="XMLID_1350_">
					<path id="XMLID_1351_" class="st3" d="M358.9,266.4c-1.8,0-3.5-0.7-4.9-2l-221.9-221c-2.7-2.7-2.7-7,0-9.7c2.7-2.7,7-2.7,9.7,0
						l221.9,221c2.7,2.7,2.7,7,0,9.7C362.5,265.7,360.7,266.4,358.9,266.4z"/>
				</g>
			</g>
			<g id="XMLID_1346_">
				<g id="XMLID_1347_">
					<circle id="XMLID_1348_" class="st3" cx="367.1" cy="268.1" r="19.6"/>
				</g>
			</g>
			<g id="XMLID_1343_">
				<g id="XMLID_1344_">
					<path id="XMLID_1345_" class="st3" d="M145,66.5c-9.5,2.3-19.3-0.5-26.1-7.5c-5.2-5.3-8-12.2-8-19.6c0-7.4,3-14.3,8.2-19.5
						c5.3-5.2,12.2-8,19.6-8c7.4,0,14.3,3,19.5,8.2c7.1,7.2,9.7,17.6,6.9,27.3c-0.9,3.2,0.9,6.5,4,7.4c3.2,0.9,6.5-0.9,7.4-4
						c4.1-13.8,0.3-28.8-9.8-39.1C159.3,4.2,149.4,0.1,138.8,0c-10.5,0-20.5,4-28.1,11.4C103.2,18.9,99,28.8,99,39.4
						s4,20.5,11.4,28.1c7.7,7.8,18,11.9,28.6,11.8c2.9,0,5.8-0.4,8.7-1.1c3.2-0.8,5.2-4,4.4-7.2C151.4,67.7,148.2,65.7,145,66.5z"/>
				</g>
			</g>
		</g>
		<g id="XMLID_1338_">
			<g id="XMLID_1340_">
				<circle id="XMLID_1341_" class="st3" cx="258.1" cy="218.9" r="19.6"/>
			</g>
		</g>
		<g id="XMLID_1327_">
			<g id="XMLID_1334_">
				<g id="XMLID_1335_">
					<path id="XMLID_1337_" class="st3" d="M157.7,266.9c-1.8,0-3.5-0.7-4.9-2c-2.7-2.7-2.7-7,0-9.7l221-221.9c2.7-2.7,7-2.7,9.7,0
						c2.7,2.7,2.7,7,0,9.7l-221,221.9C161.2,266.2,159.5,266.9,157.7,266.9z"/>
				</g>
			</g>
			<g id="XMLID_1331_">
				<g id="XMLID_1332_">
					<circle id="XMLID_1333_" class="st3" cx="149.1" cy="268.1" r="19.6"/>
				</g>
			</g>
			<g id="XMLID_1328_">
				<g id="XMLID_1329_">
					<path id="XMLID_1330_" class="st3" d="M350.7,46c-2.3-9.5,0.5-19.3,7.5-26.1c5.3-5.2,12.2-8,19.6-8c7.4,0,14.3,3,19.5,8.2
						c5.2,5.3,8,12.2,8,19.6c0,7.4-3,14.3-8.2,19.5c-7.2,7.1-17.6,9.7-27.3,6.9c-3.2-0.9-6.5,0.9-7.4,4c-0.9,3.2,0.9,6.5,4,7.4
						c13.8,4.1,28.8,0.3,39.1-9.8c7.5-7.4,11.7-17.4,11.8-27.9c0-10.5-4-20.5-11.4-28.1C398.3,4.2,388.4,0.1,377.8,0
						c-10.6-0.1-20.5,4-28.1,11.4c-7.8,7.7-11.9,18-11.8,28.6c0,2.9,0.4,5.8,1.1,8.7c0.8,3.2,4,5.2,7.2,4.4
						C349.5,52.5,351.5,49.3,350.7,46z"/>
				</g>
			</g>
		</g>
		<g id="XMLID_1322_">
			<g id="XMLID_1325_">
				<path id="XMLID_1326_" class="st3" d="M374.3,410.3c1.3,1.3,3.1,2,4.9,2c1.8,0,3.5-0.7,4.9-2c2.7-2.7,2.7-7.1,0-9.7L166.8,184.3
					c1.2-2.6,1.9-5.4,1.9-8.5c0-10.8-8.8-19.6-19.7-19.6c-10.8,0-19.6,8.8-19.6,19.7c0,10.8,8.8,19.6,19.7,19.6
					c2.8,0,5.4-0.6,7.8-1.6L374.3,410.3z"/>
			</g>
			<g id="XMLID_1323_">
				<path id="XMLID_1324_" class="st3" d="M405.8,376.5c-7.7-7.8-18-11.9-28.6-11.8c-2.9,0-5.8,0.4-8.7,1.1c-3.2,0.8-5.2,4-4.4,7.2
					c0.8,3.2,4,5.2,7.2,4.4c9.5-2.3,19.3,0.5,26.1,7.5c5.2,5.3,8,12.2,8,19.6c0,7.4-3,14.3-8.2,19.5c-5.3,5.2-12.2,8-19.6,8
					c-7.4,0-14.3-3-19.5-8.2c-7.1-7.2-9.7-17.6-6.9-27.3c0.9-3.2-0.9-6.5-4-7.4c-3.2-0.9-6.5,0.9-7.4,4c-4.1,13.8-0.3,28.8,9.8,39.1
					c7.4,7.5,17.4,11.7,27.9,11.8c10.5,0,20.5-4,28.1-11.4c7.5-7.4,11.7-17.4,11.8-27.9C417.3,394,413.2,384,405.8,376.5z"/>
			</g>
		</g>
	</g>
</g>
</svg>
